<svg width="800" height="600" xmlns="http://www.w3.org/2000/svg">
 <g>
  <title>Layer 1</title>
  <g stroke="null" id="svg_1">
   <metadata fill="#ffffff" stroke="null">Created by potrace 1.15, written by Peter Selinger 2001-2017</metadata>
   <g stroke="null" id="svg_2" transform="translate(0 1280) scale(0.1 -0.1)" fill="#000000">
    <path fill="#ffffff" stroke="null" id="svg_3" d="m3243.97766,12714.68573c-76.25574,-18.73311 -133.79002,-53.79765 -199.08685,-122.48571c-52.96806,-55.23865 -90.86762,-111.43798 -127.39732,-187.81142c-217.80832,-458.24066 -144.2923,-1214.28971 161.18729,-1647.55289c41.55253,-59.08134 113.69868,-136.89579 163.01377,-175.80302c161.64391,-128.24974 343.37915,-134.97445 489.04132,-18.25277c149.31514,120.08403 251.59829,351.60604 290.41109,657.58015c9.58905,78.77512 11.41553,322.78587 2.28311,403.48234c-37.44294,337.19596 -132.87677,616.27124 -282.19191,827.1388c-37.44294,52.35664 -110.95895,131.13176 -157.0777,168.11764c-42.92239,34.10386 -124.20097,78.29479 -166.66674,90.30319c-37.89956,11.04773 -137.89961,13.92975 -173.51606,5.2837z"/>
    <path fill="#ffffff" stroke="null" id="svg_4" d="m5038.95564,12617.65783c-142.0092,-29.3005 -290.41109,-143.6205 -413.2422,-317.50217c-157.99094,-223.3563 -264.8403,-518.76301 -305.02297,-844.4309c-12.78539,-103.7526 -11.41553,-335.27461 2.28311,-429.42049c31.96348,-214.71025 100.00005,-378.9852 201.82658,-485.61982c87.21465,-92.22453 196.80374,-134.97445 308.21932,-121.0447c265.29692,34.5842 526.94088,339.1173 666.66697,776.22317c115.98179,362.65377 128.31056,744.52098 33.33335,1035.60467c-92.69411,283.87865 -280.82205,430.8615 -494.06415,386.19024z"/>
    <path fill="#ffffff" stroke="null" id="svg_5" d="m2093.2922,11049.84074c-186.75808,-31.22185 -327.39741,-189.73277 -390.86776,-441.42889c-36.07308,-144.58117 -41.09591,-343.92066 -12.78539,-519.24334c65.29683,-408.2857 289.95447,-783.42821 555.70801,-928.48972c136.07312,-73.97176 271.68962,-86.94084 388.12803,-36.02521c171.68958,74.93243 284.47502,268.98823 321.46133,553.82754c7.30594,57.16 7.30594,226.71865 -0.45662,293.00503c-59.36076,529.3304 -369.40656,993.81543 -714.15558,1071.14954c-40.63929,9.12639 -112.78544,12.48874 -147.03203,7.20504z"/>
    <path fill="#ffffff" stroke="null" id="svg_6" d="m5963.15698,10660.76848c-164.38364,-36.98588 -325.57092,-158.51092 -459.36094,-346.80268c-145.20555,-204.62319 -242.92248,-471.69007 -271.233,-740.67829c-7.30594,-70.12907 -5.93608,-220.95461 2.28311,-288.68201c55.70779,-455.35864 349.77185,-673.91157 682.64871,-508.67595c178.53889,88.86218 340.1828,271.87024 455.70797,515.40066c219.17818,461.12267 205.02292,1001.50081 -33.33335,1251.75593c-100.45667,105.67395 -238.81289,148.9042 -376.7125,117.68235z"/>
    <path fill="#ffffff" stroke="null" id="svg_7" d="m3979.13781,9806.25053c-302.28324,-56.67966 -683.56195,-390.51326 -1021.46165,-893.90552c-264.38368,-394.35595 -450.68514,-818.97308 -506.39292,-1155.20837c-13.24202,-80.69647 -14.61188,-224.7973 -2.73973,-280.03596c18.72147,-85.98017 50.22833,-142.65983 111.41558,-202.70184c102.28315,-99.42958 225.11426,-158.03058 378.99561,-180.60638c79.90871,-11.52807 241.55262,-7.20504 344.29239,9.12639c137.44298,22.5758 253.42477,51.8763 513.24224,130.65142c251.14167,75.89311 321.46133,91.7442 390.86776,86.94084c88.12789,-6.24437 154.33797,-28.82017 344.29239,-116.72168c136.07312,-62.92403 211.87224,-92.70487 276.71245,-109.51664c242.00924,-61.48302 445.6623,18.73311 655.25144,257.9405c62.55711,71.08975 81.7352,105.67395 101.36991,181.08672c10.95891,43.23025 11.87215,52.83697 11.87215,154.18789c0,91.7442 -1.36986,117.68235 -10.50229,170.51932c-53.8813,320.38419 -214.15535,707.5351 -445.6623,1075.95291c-275.34259,438.06654 -598.63041,753.64737 -868.49355,847.31291c-98.17356,34.10386 -181.73524,41.78924 -273.05948,24.97748z"/>
   </g>
  </g>
 </g>

</svg>